<svg width="19" height="17" viewBox="0 0 19 17" fill="none" xmlns="http://www.w3.org/2000/svg">
<g clip-path="url(#clip0_149_78)">
<path d="M4.00824 8.84253H6.68072C5.42187 9.73853 4.80047 10.4174 3.93945 10.4174C3.0383 10.3431 3.29741 9.57738 3.52098 9.14424C3.5661 9.05382 3.63558 8.97771 3.72164 8.92442C3.80769 8.87114 3.90693 8.84278 4.00824 8.84253Z" fill="#D9304F"/>
<path d="M4.25933 16.0779H1.37933C1.37271 16.0779 1.36619 16.0763 1.36031 16.0732C1.35442 16.0702 1.34932 16.0659 1.34542 16.0606C1.34153 16.0552 1.33893 16.0491 1.33785 16.0425C1.33677 16.036 1.33723 16.0294 1.3392 16.0231L1.62238 15.1614C1.63015 15.1377 1.64293 15.1159 1.65988 15.0976C1.67682 15.0792 1.69753 15.0648 1.72059 15.0551C1.74364 15.0455 1.76851 15.0409 1.79351 15.0417C1.8185 15.0424 1.84304 15.0486 1.86544 15.0596C2.6402 15.4388 3.44559 15.7523 4.27308 15.9968C4.28388 15.9986 4.29351 16.0046 4.29985 16.0135C4.30619 16.0224 4.30873 16.0335 4.30691 16.0442C4.30508 16.055 4.29904 16.0646 4.29012 16.0709C4.2812 16.0772 4.27012 16.0797 4.25933 16.0779Z" fill="#D9304F"/>
<path d="M15.0811 8.84253H12.4098C13.6709 9.73853 14.2889 10.4117 15.1499 10.4117C16.0511 10.3374 15.792 9.57168 15.5684 9.13853C15.5226 9.0491 15.4528 8.97408 15.3668 8.92183C15.2807 8.86957 15.1819 8.84212 15.0811 8.84253Z" fill="#D9304F"/>
<path d="M14.8312 16.0779H17.7112C17.7179 16.0781 17.7245 16.0767 17.7306 16.0738C17.7366 16.0708 17.7418 16.0665 17.7457 16.0611C17.7497 16.0557 17.7523 16.0494 17.7532 16.0428C17.7542 16.0361 17.7535 16.0294 17.7513 16.0231L17.4681 15.1614C17.4602 15.1376 17.4473 15.1159 17.4303 15.0975C17.4132 15.0792 17.3924 15.0647 17.3693 15.0551C17.3461 15.0454 17.3212 15.0409 17.2961 15.0417C17.271 15.0424 17.2464 15.0486 17.2239 15.0597C16.4491 15.4387 15.6437 15.7522 14.8163 15.9968C14.8055 15.9988 14.7959 16.0049 14.7897 16.0139C14.7834 16.0229 14.781 16.034 14.783 16.0448C14.785 16.0556 14.7912 16.0651 14.8002 16.0713C14.8092 16.0775 14.8204 16.0799 14.8312 16.0779Z" fill="#D9304F"/>
<path d="M18.4725 8.96252C14.5423 14.4368 13.0839 9.34195 10.7153 9.34195C9.78776 9.34195 9.54355 10.0882 9.54355 10.4162C9.54355 10.0882 9.3005 9.34195 8.37298 9.34195C6.00317 9.34195 4.54597 14.4368 0.614634 8.96252C0.538965 14.966 6.26572 16.3911 9.54241 12.63C12.8214 16.3854 18.5481 14.966 18.4725 8.96252Z" fill="#D9304F"/>
<path d="M18.0105 6.71222C17.5702 6.94765 17.083 7.1808 16.6668 7.35908C16.5302 7.41731 16.3831 7.44725 16.2346 7.44708H2.85378C2.70522 7.44716 2.55819 7.41722 2.42156 7.35908C2.00538 7.1808 1.51812 6.94765 1.07327 6.71222C1.03349 6.69089 1.00244 6.65637 0.985483 6.61464C0.968526 6.5729 0.966731 6.52657 0.980409 6.48365C1.03315 6.3088 1.13175 6.00022 1.27391 5.65508C1.28413 5.63044 1.29935 5.60817 1.31862 5.58968C1.33789 5.57119 1.3608 5.55688 1.38589 5.54764C1.41099 5.53841 1.43773 5.53446 1.46443 5.53603C1.49113 5.53761 1.51722 5.54468 1.54105 5.5568C1.96869 5.7728 2.31035 5.92708 2.62907 6.0608V3.46651C2.62997 3.42043 2.64747 3.37622 2.67837 3.34194C3.52096 2.34289 4.57133 1.53835 5.75674 0.984037C6.94214 0.429722 8.23426 0.13888 9.54359 0.131653C10.8531 0.138944 12.1453 0.429809 13.3309 0.984113C14.5165 1.53842 15.5671 2.34292 16.41 3.34194C16.4393 3.37691 16.4555 3.42094 16.4558 3.46651V6.06422C16.7746 5.93051 17.1162 5.77622 17.545 5.56022C17.5687 5.54812 17.5947 5.54106 17.6214 5.5395C17.648 5.53794 17.6746 5.5419 17.6996 5.55114C17.7246 5.56038 17.7475 5.57469 17.7666 5.59317C17.7858 5.61166 17.8009 5.6339 17.811 5.65851C17.9532 6.00137 18.0518 6.31222 18.1045 6.48708C18.1174 6.52966 18.1151 6.57538 18.0979 6.61644C18.0808 6.65751 18.0499 6.69136 18.0105 6.71222Z" fill="#D9304F"/>
</g>
<defs>
<clipPath id="clip0_149_78">
<rect width="18" height="16" fill="white" transform="translate(0.5 0.10199)"/>
</clipPath>
</defs>
</svg>
